{
    "asset": {
        "generator": "Khronos glTF Blender I/O v3.6.28",
        "version": "2.0"
    },
    "extensionsUsed": ["KHR_materials_specular"],
    "scene": 0,
    "scenes": [
        {
            "name": "Scene",
            "nodes": [0, 1, 2, 3, 4, 5]
        }
    ],
    "nodes": [
        {
            "mesh": 0,
            "name": "Body_body_pen01"
        },
        {
            "mesh": 1,
            "name": "Body_body_pen_part_01"
        },
        {
            "mesh": 2,
            "name": "Body_body_pen_part_02"
        },
        {
            "mesh": 3,
            "name": "Body_body_pen_part_04"
        },
        {
            "mesh": 4,
            "name": "Top_Object01"
        },
        {
            "mesh": 5,
            "name": "Top_Object03"
        }
    ],
    "materials": [
        {
            "doubleSided": true,
            "extensions": {
                "KHR_materials_specular": {
                    "specularColorFactor": [1.771999955177307, 1.771999955177307, 1.771999955177307]
                }
            },
            "name": "glossy_black",
            "pbrMetallicRoughness": {
                "baseColorFactor": [
                    0.05900000035762787, 0.05900000035762787, 0.05900000035762787, 1
                ],
                "metallicFactor": 0,
                "roughnessFactor": 0.7171573042869568
            }
        },
        {
            "doubleSided": true,
            "extensions": {
                "KHR_materials_specular": {
                    "specularColorFactor": [1.359333276748657, 1.359333276748657, 1.359333276748657]
                }
            },
            "name": "gold",
            "pbrMetallicRoughness": {
                "baseColorFactor": [
                    0.19200000166893005, 0.14900000393390656, 0.10199999809265137, 1
                ],
                "metallicFactor": 0.800000011920929,
                "roughnessFactor": 0.6917793154716492
            }
        },
        {
            "doubleSided": true,
            "extensions": {
                "KHR_materials_specular": {
                    "specularColorFactor": [
                        1.9999999999999998, 1.9999999999999998, 1.9999999999999998
                    ]
                }
            },
            "name": "chrome",
            "pbrMetallicRoughness": {
                "baseColorFactor": [0.5, 0.5, 0.5, 1],
                "metallicFactor": 0.800000011920929,
                "roughnessFactor": 0.7171573042869568
            }
        },
        {
            "doubleSided": true,
            "extensions": {
                "KHR_materials_specular": {
                    "specularColorFactor": [
                        1.6699999570846555, 1.6699999570846555, 1.6699999570846555
                    ]
                }
            },
            "name": "mat_black",
            "pbrMetallicRoughness": {
                "baseColorFactor": [
                    0.07100000232458115, 0.07100000232458115, 0.07100000232458115, 1
                ],
                "metallicFactor": 0,
                "roughnessFactor": 0.7171573042869568
            }
        }
    ],
    "meshes": [
        {
            "name": "Body_body_pen01",
            "primitives": [
                {
                    "attributes": {
                        "POSITION": 0,
                        "NORMAL": 1
                    },
                    "indices": 2,
                    "material": 0
                }
            ]
        },
        {
            "name": "Body_body_pen_part_01",
            "primitives": [
                {
                    "attributes": {
                        "POSITION": 3,
                        "NORMAL": 4
                    },
                    "indices": 5,
                    "material": 1
                }
            ]
        },
        {
            "name": "Body_body_pen_part_02",
            "primitives": [
                {
                    "attributes": {
                        "POSITION": 6,
                        "NORMAL": 7
                    },
                    "indices": 8,
                    "material": 2
                }
            ]
        },
        {
            "name": "Body_body_pen_part_04",
            "primitives": [
                {
                    "attributes": {
                        "POSITION": 9,
                        "NORMAL": 10
                    },
                    "indices": 11,
                    "material": 3
                }
            ]
        },
        {
            "name": "Top_Object01",
            "primitives": [
                {
                    "attributes": {
                        "POSITION": 12,
                        "NORMAL": 13
                    },
                    "indices": 14,
                    "material": 1
                }
            ]
        },
        {
            "name": "Top_Object03",
            "primitives": [
                {
                    "attributes": {
                        "POSITION": 15,
                        "NORMAL": 16
                    },
                    "indices": 17,
                    "material": 0
                }
            ]
        }
    ],
    "accessors": [
        {
            "bufferView": 0,
            "componentType": 5126,
            "count": 2297,
            "max": [0.578000009059906, 1.156000018119812, 5.4079999923706055],
            "min": [-0.578000009059906, 0.039000000804662704, -4.688000202178955],
            "type": "VEC3"
        },
        {
            "bufferView": 1,
            "componentType": 5126,
            "count": 2297,
            "type": "VEC3"
        },
        {
            "bufferView": 2,
            "componentType": 5123,
            "count": 13356,
            "type": "SCALAR"
        },
        {
            "bufferView": 3,
            "componentType": 5126,
            "count": 21059,
            "max": [0.5630000233650208, 1.1410000324249268, 7.151000022888184],
            "min": [-0.5630000233650208, 0.05400000140070915, 2.632999897003174],
            "type": "VEC3"
        },
        {
            "bufferView": 4,
            "componentType": 5126,
            "count": 21059,
            "type": "VEC3"
        },
        {
            "bufferView": 5,
            "componentType": 5123,
            "count": 121356,
            "type": "SCALAR"
        },
        {
            "bufferView": 6,
            "componentType": 5126,
            "count": 1427,
            "max": [0.3199999928474426, 0.8870000243186951, 6.440999984741211],
            "min": [-0.3199999928474426, 0.2770000100135803, 5.877999782562256],
            "type": "VEC3"
        },
        {
            "bufferView": 7,
            "componentType": 5126,
            "count": 1427,
            "type": "VEC3"
        },
        {
            "bufferView": 8,
            "componentType": 5123,
            "count": 7980,
            "type": "SCALAR"
        },
        {
            "bufferView": 9,
            "componentType": 5126,
            "count": 29,
            "max": [0.3050000071525574, 0.902999997138977, 5.359000205993652],
            "min": [-0.3050000071525574, 0.2919999957084656, 5.359000205993652],
            "type": "VEC3"
        },
        {
            "bufferView": 10,
            "componentType": 5126,
            "count": 29,
            "type": "VEC3"
        },
        {
            "bufferView": 11,
            "componentType": 5123,
            "count": 84,
            "type": "SCALAR"
        },
        {
            "bufferView": 12,
            "componentType": 5126,
            "count": 4231,
            "max": [0.6169999837875366, 1.4290000200271606, -1.097000002861023],
            "min": [-0.6169999837875366, 0, -7.138999938964844],
            "type": "VEC3"
        },
        {
            "bufferView": 13,
            "componentType": 5126,
            "count": 4231,
            "type": "VEC3"
        },
        {
            "bufferView": 14,
            "componentType": 5123,
            "count": 24540,
            "type": "SCALAR"
        },
        {
            "bufferView": 15,
            "componentType": 5126,
            "count": 1624,
            "max": [0.5920000076293945, 1.1699999570846558, -1.097000002861023],
            "min": [-0.5920000076293945, 0.02500000037252903, -7.151000022888184],
            "type": "VEC3"
        },
        {
            "bufferView": 16,
            "componentType": 5126,
            "count": 1624,
            "type": "VEC3"
        },
        {
            "bufferView": 17,
            "componentType": 5123,
            "count": 9408,
            "type": "SCALAR"
        }
    ],
    "bufferViews": [
        {
            "buffer": 0,
            "byteLength": 27564,
            "byteOffset": 0,
            "target": 34962
        },
        {
            "buffer": 0,
            "byteLength": 27564,
            "byteOffset": 27564,
            "target": 34962
        },
        {
            "buffer": 0,
            "byteLength": 26712,
            "byteOffset": 55128,
            "target": 34963
        },
        {
            "buffer": 0,
            "byteLength": 252708,
            "byteOffset": 81840,
            "target": 34962
        },
        {
            "buffer": 0,
            "byteLength": 252708,
            "byteOffset": 334548,
            "target": 34962
        },
        {
            "buffer": 0,
            "byteLength": 242712,
            "byteOffset": 587256,
            "target": 34963
        },
        {
            "buffer": 0,
            "byteLength": 17124,
            "byteOffset": 829968,
            "target": 34962
        },
        {
            "buffer": 0,
            "byteLength": 17124,
            "byteOffset": 847092,
            "target": 34962
        },
        {
            "buffer": 0,
            "byteLength": 15960,
            "byteOffset": 864216,
            "target": 34963
        },
        {
            "buffer": 0,
            "byteLength": 348,
            "byteOffset": 880176,
            "target": 34962
        },
        {
            "buffer": 0,
            "byteLength": 348,
            "byteOffset": 880524,
            "target": 34962
        },
        {
            "buffer": 0,
            "byteLength": 168,
            "byteOffset": 880872,
            "target": 34963
        },
        {
            "buffer": 0,
            "byteLength": 50772,
            "byteOffset": 881040,
            "target": 34962
        },
        {
            "buffer": 0,
            "byteLength": 50772,
            "byteOffset": 931812,
            "target": 34962
        },
        {
            "buffer": 0,
            "byteLength": 49080,
            "byteOffset": 982584,
            "target": 34963
        },
        {
            "buffer": 0,
            "byteLength": 19488,
            "byteOffset": 1031664,
            "target": 34962
        },
        {
            "buffer": 0,
            "byteLength": 19488,
            "byteOffset": 1051152,
            "target": 34962
        },
        {
            "buffer": 0,
            "byteLength": 18816,
            "byteOffset": 1070640,
            "target": 34963
        }
    ],
    "buffers": [
        {
            "byteLength": 1089456,
            "uri": "data:application/octet-stream;base64,"
        }
    ]
}
